<svg xmlns="http://www.w3.org/2000/svg" width="240" height="240" viewBox="0 0 240 240" version="1.1">
	<path d="M 55.286 31.432 C 45.056 34.674, 37.701 41.146, 33.101 50.954 L 30.500 56.500 30.500 120.500 C 30.500 184.145, 30.512 184.526, 32.679 189.217 C 35.735 195.831, 43.242 203.480, 49.875 206.738 L 55.500 209.500 120 209.500 L 184.500 209.500 189.500 207.039 C 195.901 203.888, 203.888 195.901, 207.039 189.500 L 209.500 184.500 209.500 120.500 L 209.500 56.500 206.875 51 C 202.981 42.844, 197.859 37.549, 190.231 33.792 L 183.545 30.500 121.523 30.298 C 72.117 30.138, 58.643 30.369, 55.286 31.432 M 63.500 51.222 C 58.298 53.066, 55.254 55.850, 52.586 61.203 L 50 66.393 50 120.082 L 50 173.772 52.784 179.101 C 55.047 183.432, 56.579 184.959, 60.960 187.248 L 66.351 190.064 121.425 189.782 L 176.500 189.500 180.317 187.127 C 182.417 185.822, 185.342 182.930, 186.817 180.700 L 189.500 176.647 189.500 119.910 L 189.500 63.173 186.500 58.913 C 184.850 56.570, 181.517 53.606, 179.093 52.327 L 174.685 50 120.593 50.079 C 85.121 50.131, 65.467 50.524, 63.500 51.222 M 124.517 73.646 C 110.776 76.627, 99.076 79.523, 98.517 80.082 C 97.885 80.713, 97.389 92.721, 97.207 111.791 C 97.047 128.673, 96.562 142.838, 96.130 143.270 C 95.698 143.702, 92.526 144.510, 89.081 145.064 C 79.213 146.654, 75 150.694, 75 158.568 C 75 161.516, 75.788 163.024, 79.019 166.255 C 82.991 170.226, 83.110 170.268, 88.943 169.739 C 92.190 169.444, 96.224 168.390, 97.907 167.396 C 103.668 163.993, 104 162.051, 104 131.721 C 104 110.227, 104.286 104.007, 105.316 103.153 C 106.040 102.552, 115.537 100.150, 126.421 97.814 C 145.700 93.678, 146.247 93.617, 147.606 95.475 C 149.524 98.099, 149.636 131.227, 147.731 132.808 C 147.034 133.387, 143.420 134.391, 139.700 135.039 C 134.485 135.947, 132.267 136.887, 130.007 139.147 C 126.091 143.063, 125.257 147.833, 127.647 152.643 C 131.677 160.756, 143.563 162.176, 150.932 155.425 L 154.500 152.155 154.783 111.338 C 155.044 73.657, 154.934 70.425, 153.342 69.261 C 151.189 67.686, 153.868 67.279, 124.517 73.646" stroke="none" fill="black" fill-rule="evenodd"/>
</svg>